<?xml version="1.0" encoding="utf-8"?>
<!-- Generator: Adobe Illustrator 16.0.4, SVG Export Plug-In . SVG Version: 6.00 Build 0)  -->
<!DOCTYPE svg PUBLIC "-//W3C//DTD SVG 1.1//EN" "http://www.w3.org/Graphics/SVG/1.1/DTD/svg11.dtd">
<svg version="1.1" id="Layer_1" xmlns="http://www.w3.org/2000/svg" xmlns:xlink="http://www.w3.org/1999/xlink" x="0px" y="0px"
	 width="20px" height="20px" viewBox="0 0 20 20" enable-background="new 0 0 20 20" xml:space="preserve">
<g id="_x23_020201ff">
	<path fill="#666666" d="M8.482,1.451c0.744-0.711,1.802-0.947,2.799-0.978c1.055-0.01,2.109-0.005,3.164-0.005
		c0.005,1.114,0.006,2.228,0,3.34c-0.682,0-1.364,0.002-2.045,0c-0.436-0.027-0.877,0.302-0.955,0.729
		c-0.012,0.743-0.004,1.489-0.004,2.233c1,0.005,2,0,3,0.003c-0.073,1.077-0.207,2.15-0.363,3.219c-0.885,0.009-1.768,0-2.65,0.006
		c-0.008,3.178,0.004,6.354-0.006,9.532c-1.312,0.005-2.625-0.005-3.938,0.003C7.46,16.355,7.486,13.177,7.47,9.998
		C6.83,9.99,6.191,10.002,5.55,9.991c0.004-1.067,0-2.137,0.002-3.203c0.639-0.01,1.279,0.001,1.918-0.006
		c0.021-1.037-0.019-2.078,0.021-3.114C7.555,2.846,7.868,2.018,8.482,1.451z"/>
</g>
</svg>
